<?xml version="1.0" encoding="UTF-8"?>
<svg id="Layer_1" data-name="Layer 1" xmlns="http://www.w3.org/2000/svg" xmlns:xlink="http://www.w3.org/1999/xlink" viewBox="0 0 1036.33 245.67">
  <defs>
    <style>
      .cls-1 {
        fill: url(#linear-gradient);
        opacity: .5;
      }
    </style>
    <linearGradient id="linear-gradient" x1="500.19" y1="-.31" x2="500.19" y2="266.47" gradientUnits="userSpaceOnUse">
      <stop offset="0" stop-color="#fff" stop-opacity="0"/>
      <stop offset="1" stop-color="#231f20"/>
    </linearGradient>
  </defs>
  <path class="cls-1" d="M27.13,0C12.14,0,0,13.87,0,30.97c0,11.55,5.54,21.63,13.76,26.95.66-3.66,2.19-7.03,4.4-9.86-1.55-1.1-3.03-2.35-4.44-3.77C3.62,34.19,1.41,20,8.82,12.59c7.4-7.4,21.59-5.2,31.7,4.91,7.84,7.84,10.92,18.14,8.46,25.82h0c.79.57,1.55,1.16,2.26,1.82,1.94-4.24,3.01-9.06,3.01-14.16C54.25,13.87,42.11,0,27.13,0ZM90.2,57.93c14.98,0,27.13-13.87,27.13-30.97,0-11.55-5.54-21.63-13.76-26.95-.66,3.66-2.19,7.03-4.4,9.86,1.55,1.1,3.03,2.35,4.44,3.77,10.1,10.11,12.31,24.3,4.9,31.71-7.4,7.4-21.59,5.2-31.7-4.91-7.84-7.84-10.92-18.14-8.46-25.82h0c-.79-.57-1.55-1.16-2.26-1.82-1.94,4.24-3.01,9.06-3.01,14.16,0,17.11,12.14,30.97,27.13,30.97ZM153.28,0c-14.98,0-27.13,13.87-27.13,30.97,0,11.55,5.54,21.63,13.76,26.95.66-3.66,2.19-7.03,4.4-9.86-1.55-1.1-3.03-2.35-4.44-3.77-10.1-10.11-12.31-24.3-4.9-31.71,7.4-7.4,21.59-5.2,31.7,4.91,7.84,7.84,10.92,18.14,8.46,25.82h0c.79.57,1.55,1.16,2.26,1.82,1.94-4.24,3.01-9.06,3.01-14.16,0-17.11-12.14-30.97-27.13-30.97ZM216.35,57.93c14.98,0,27.13-13.87,27.13-30.97,0-11.55-5.54-21.63-13.76-26.95-.66,3.66-2.19,7.03-4.4,9.86,1.55,1.1,3.03,2.35,4.44,3.77,10.1,10.11,12.31,24.3,4.9,31.71-7.4,7.4-21.59,5.2-31.7-4.91-7.84-7.84-10.92-18.14-8.46-25.82h0c-.79-.57-1.55-1.16-2.26-1.82-1.94,4.24-3.01,9.06-3.01,14.16,0,17.11,12.14,30.97,27.13,30.97ZM279.43,0c-14.98,0-27.13,13.87-27.13,30.97,0,11.55,5.54,21.63,13.76,26.95.66-3.66,2.19-7.03,4.4-9.86-1.55-1.1-3.03-2.35-4.44-3.77-10.1-10.11-12.31-24.3-4.9-31.71,7.4-7.4,21.59-5.2,31.7,4.91,7.84,7.84,10.92,18.14,8.46,25.82h0c.79.57,1.55,1.16,2.26,1.82,1.94-4.24,3.01-9.06,3.01-14.16,0-17.11-12.14-30.97-27.13-30.97ZM342.5,57.93c14.98,0,27.13-13.87,27.13-30.97,0-11.55-5.54-21.63-13.76-26.95-.66,3.66-2.19,7.03-4.4,9.86,1.55,1.1,3.03,2.35,4.44,3.77,10.1,10.11,12.31,24.3,4.9,31.71-7.4,7.4-21.59,5.2-31.7-4.91-7.84-7.84-10.92-18.14-8.46-25.82h0c-.79-.57-1.55-1.16-2.26-1.82-1.94,4.24-3.01,9.06-3.01,14.16,0,17.11,12.14,30.97,27.13,30.97ZM405.57,0c-14.98,0-27.13,13.87-27.13,30.97,0,11.55,5.54,21.63,13.76,26.95.66-3.66,2.19-7.03,4.4-9.86-1.55-1.1-3.03-2.35-4.44-3.77-10.1-10.11-12.31-24.3-4.9-31.71,7.4-7.4,21.59-5.2,31.7,4.91,7.84,7.84,10.92,18.14,8.46,25.82h0c.79.57,1.55,1.16,2.26,1.82,1.94-4.24,3.01-9.06,3.01-14.16,0-17.11-12.14-30.97-27.13-30.97ZM468.65,57.93c14.98,0,27.13-13.87,27.13-30.97,0-11.55-5.54-21.63-13.76-26.95-.66,3.66-2.19,7.03-4.4,9.86,1.55,1.1,3.03,2.35,4.44,3.77,10.1,10.11,12.31,24.3,4.9,31.71-7.4,7.4-21.59,5.2-31.7-4.91-7.84-7.84-10.92-18.14-8.46-25.82h0c-.79-.57-1.55-1.16-2.26-1.82-1.94,4.24-3.01,9.06-3.01,14.16,0,17.11,12.14,30.97,27.13,30.97ZM531.72,0c-14.98,0-27.13,13.87-27.13,30.97,0,11.55,5.54,21.63,13.76,26.95.66-3.66,2.19-7.03,4.4-9.86-1.55-1.1-3.03-2.35-4.44-3.77-10.1-10.11-12.31-24.3-4.9-31.71,7.4-7.4,21.59-5.2,31.7,4.91,7.84,7.84,10.92,18.14,8.46,25.82h0c.79.57,1.55,1.16,2.26,1.82,1.94-4.24,3.01-9.06,3.01-14.16,0-17.11-12.14-30.97-27.13-30.97ZM594.8,57.93c14.98,0,27.13-13.87,27.13-30.97,0-11.55-5.54-21.63-13.76-26.95-.66,3.66-2.19,7.03-4.4,9.86,1.55,1.1,3.03,2.35,4.44,3.77,10.1,10.11,12.31,24.3,4.9,31.71-7.4,7.4-21.59,5.2-31.7-4.91-7.84-7.84-10.92-18.14-8.46-25.82h0c-.79-.57-1.55-1.16-2.26-1.82-1.94,4.24-3.01,9.06-3.01,14.16,0,17.11,12.14,30.97,27.13,30.97ZM657.87,0c-14.98,0-27.13,13.87-27.13,30.97,0,11.55,5.54,21.63,13.76,26.95.66-3.66,2.19-7.03,4.4-9.86-1.55-1.1-3.03-2.35-4.44-3.77-10.1-10.11-12.31-24.3-4.9-31.71,7.4-7.4,21.59-5.2,31.7,4.91,7.84,7.84,10.92,18.14,8.46,25.82h0c.79.57,1.55,1.16,2.26,1.82,1.94-4.24,3.01-9.06,3.01-14.16,0-17.11-12.14-30.97-27.13-30.97ZM720.95,57.93c14.98,0,27.13-13.87,27.13-30.97,0-11.55-5.54-21.63-13.76-26.95-.66,3.66-2.19,7.03-4.4,9.86,1.55,1.1,3.03,2.35,4.44,3.77,10.1,10.11,12.31,24.3,4.9,31.71-7.4,7.4-21.59,5.2-31.7-4.91-7.84-7.84-10.92-18.14-8.46-25.82h0c-.79-.57-1.55-1.16-2.26-1.82-1.94,4.24-3.01,9.06-3.01,14.16,0,17.11,12.14,30.97,27.13,30.97ZM784.02,0c-14.98,0-27.13,13.87-27.13,30.97,0,11.55,5.54,21.63,13.76,26.95.66-3.66,2.19-7.03,4.4-9.86-1.55-1.1-3.03-2.35-4.44-3.77-10.1-10.11-12.31-24.3-4.9-31.71,7.4-7.4,21.59-5.2,31.7,4.91,7.84,7.84,10.92,18.14,8.46,25.82h0c.79.57,1.55,1.16,2.26,1.82,1.94-4.24,3.01-9.06,3.01-14.16,0-17.11-12.14-30.97-27.13-30.97ZM847.1,57.93c14.98,0,27.13-13.87,27.13-30.97,0-11.55-5.54-21.63-13.76-26.95-.66,3.66-2.19,7.03-4.4,9.86,1.55,1.1,3.03,2.35,4.44,3.77,10.1,10.11,12.31,24.3,4.9,31.71-7.4,7.4-21.59,5.2-31.7-4.91-7.84-7.84-10.92-18.14-8.46-25.82h0c-.79-.57-1.55-1.16-2.26-1.82-1.94,4.24-3.01,9.06-3.01,14.16,0,17.11,12.14,30.97,27.13,30.97ZM910.17,0c-14.98,0-27.13,13.87-27.13,30.97,0,11.55,5.54,21.63,13.76,26.95.66-3.66,2.19-7.03,4.4-9.86-1.55-1.1-3.03-2.35-4.44-3.77-10.1-10.11-12.31-24.3-4.9-31.71,7.4-7.4,21.59-5.2,31.7,4.91,7.84,7.84,10.92,18.14,8.46,25.82h0c.79.57,1.55,1.16,2.26,1.82,1.94-4.24,3.01-9.06,3.01-14.16,0-17.11-12.14-30.97-27.13-30.97ZM973.25,57.93c14.98,0,27.13-13.87,27.13-30.97,0-11.55-5.54-21.63-13.76-26.95-.66,3.66-2.19,7.03-4.4,9.86,1.55,1.1,3.03,2.35,4.44,3.77,10.1,10.11,12.31,24.3,4.9,31.71-7.4,7.4-21.59,5.2-31.7-4.91-7.84-7.84-10.92-18.14-8.46-25.82h0c-.79-.57-1.55-1.16-2.26-1.82-1.94,4.24-3.01,9.06-3.01,14.16,0,17.11,12.14,30.97,27.13,30.97ZM973.25,62.58c14.98,0,27.13,13.87,27.13,30.97,0,11.55-5.54,21.63-13.76,26.95-.66-3.66-2.19-7.03-4.4-9.86,1.55-1.1,3.03-2.35,4.44-3.77,10.1-10.11,12.31-24.3,4.9-31.71-7.4-7.4-21.59-5.2-31.7,4.91-7.84,7.84-10.92,18.14-8.46,25.82h0c-.79.57-1.55,1.16-2.26,1.82-1.94-4.24-3.01-9.06-3.01-14.16,0-17.11,12.14-30.97,27.13-30.97ZM910.17,120.51c-14.98,0-27.13-13.87-27.13-30.97,0-11.55,5.54-21.63,13.76-26.95.66,3.66,2.19,7.03,4.4,9.86-1.55,1.1-3.03,2.35-4.44,3.77-10.1,10.11-12.31,24.3-4.9,31.71,7.4,7.4,21.59,5.2,31.7-4.91,7.84-7.84,10.92-18.14,8.46-25.82h0c.79-.57,1.55-1.16,2.26-1.82,1.94,4.24,3.01,9.06,3.01,14.16,0,17.11-12.14,30.97-27.13,30.97ZM847.1,62.58c14.98,0,27.13,13.87,27.13,30.97,0,11.55-5.54,21.63-13.76,26.95-.66-3.66-2.19-7.03-4.4-9.86,1.55-1.1,3.03-2.35,4.44-3.77,10.1-10.11,12.31-24.3,4.9-31.71-7.4-7.4-21.59-5.2-31.7,4.91-7.84,7.84-10.92,18.14-8.46,25.82h0c-.79.57-1.55,1.16-2.26,1.82-1.94-4.24-3.01-9.06-3.01-14.16,0-17.11,12.14-30.97,27.13-30.97ZM784.02,120.51c-14.98,0-27.13-13.87-27.13-30.97,0-11.55,5.54-21.63,13.76-26.95.66,3.66,2.19,7.03,4.4,9.86-1.55,1.1-3.03,2.35-4.44,3.77-10.1,10.11-12.31,24.3-4.9,31.71,7.4,7.4,21.59,5.2,31.7-4.91,7.84-7.84,10.92-18.14,8.46-25.82h0c.79-.57,1.55-1.16,2.26-1.82,1.94,4.24,3.01,9.06,3.01,14.16,0,17.11-12.14,30.97-27.13,30.97ZM720.95,62.58c14.98,0,27.13,13.87,27.13,30.97,0,11.55-5.54,21.63-13.76,26.95-.66-3.66-2.19-7.03-4.4-9.86,1.55-1.1,3.03-2.35,4.44-3.77,10.1-10.11,12.31-24.3,4.9-31.71-7.4-7.4-21.59-5.2-31.7,4.91-7.84,7.84-10.92,18.14-8.46,25.82h0c-.79.57-1.55,1.16-2.26,1.82-1.94-4.24-3.01-9.06-3.01-14.16,0-17.11,12.14-30.97,27.13-30.97ZM657.87,120.51c-14.98,0-27.13-13.87-27.13-30.97,0-11.55,5.54-21.63,13.76-26.95.66,3.66,2.19,7.03,4.4,9.86-1.55,1.1-3.03,2.35-4.44,3.77-10.1,10.11-12.31,24.3-4.9,31.71,7.4,7.4,21.59,5.2,31.7-4.91,7.84-7.84,10.92-18.14,8.46-25.82h0c.79-.57,1.55-1.16,2.26-1.82,1.94,4.24,3.01,9.06,3.01,14.16,0,17.11-12.14,30.97-27.13,30.97ZM594.8,62.58c14.98,0,27.13,13.87,27.13,30.97,0,11.55-5.54,21.63-13.76,26.95-.66-3.66-2.19-7.03-4.4-9.86,1.55-1.1,3.03-2.35,4.44-3.77,10.1-10.11,12.31-24.3,4.9-31.71-7.4-7.4-21.59-5.2-31.7,4.91-7.84,7.84-10.92,18.14-8.46,25.82h0c-.79.57-1.55,1.16-2.26,1.82-1.94-4.24-3.01-9.06-3.01-14.16,0-17.11,12.14-30.97,27.13-30.97ZM531.72,120.51c-14.98,0-27.13-13.87-27.13-30.97,0-11.55,5.54-21.63,13.76-26.95.66,3.66,2.19,7.03,4.4,9.86-1.55,1.1-3.03,2.35-4.44,3.77-10.1,10.11-12.31,24.3-4.9,31.71,7.4,7.4,21.59,5.2,31.7-4.91,7.84-7.84,10.92-18.14,8.46-25.82h0c.79-.57,1.55-1.16,2.26-1.82,1.94,4.24,3.01,9.06,3.01,14.16,0,17.11-12.14,30.97-27.13,30.97ZM468.65,62.58c14.98,0,27.13,13.87,27.13,30.97,0,11.55-5.54,21.63-13.76,26.95-.66-3.66-2.19-7.03-4.4-9.86,1.55-1.1,3.03-2.35,4.44-3.77,10.1-10.11,12.31-24.3,4.9-31.71-7.4-7.4-21.59-5.2-31.7,4.91-7.84,7.84-10.92,18.14-8.46,25.82h0c-.79.57-1.55,1.16-2.26,1.82-1.94-4.24-3.01-9.06-3.01-14.16,0-17.11,12.14-30.97,27.13-30.97ZM405.57,120.51c-14.98,0-27.13-13.87-27.13-30.97,0-11.55,5.54-21.63,13.76-26.95.66,3.66,2.19,7.03,4.4,9.86-1.55,1.1-3.03,2.35-4.44,3.77-10.1,10.11-12.31,24.3-4.9,31.71,7.4,7.4,21.59,5.2,31.7-4.91,7.84-7.84,10.92-18.14,8.46-25.82h0c.79-.57,1.55-1.16,2.26-1.82,1.94,4.24,3.01,9.06,3.01,14.16,0,17.11-12.14,30.97-27.13,30.97ZM342.5,62.58c14.98,0,27.13,13.87,27.13,30.97,0,11.55-5.54,21.63-13.76,26.95-.66-3.66-2.19-7.03-4.4-9.86,1.55-1.1,3.03-2.35,4.44-3.77,10.1-10.11,12.31-24.3,4.9-31.71-7.4-7.4-21.59-5.2-31.7,4.91-7.84,7.84-10.92,18.14-8.46,25.82h0c-.79.57-1.55,1.16-2.26,1.82-1.94-4.24-3.01-9.06-3.01-14.16,0-17.11,12.14-30.97,27.13-30.97ZM279.43,120.51c-14.98,0-27.13-13.87-27.13-30.97,0-11.55,5.54-21.63,13.76-26.95.66,3.66,2.19,7.03,4.4,9.86-1.55,1.1-3.03,2.35-4.44,3.77-10.1,10.11-12.31,24.3-4.9,31.71,7.4,7.4,21.59,5.2,31.7-4.91,7.84-7.84,10.92-18.14,8.46-25.82h0c.79-.57,1.55-1.16,2.26-1.82,1.94,4.24,3.01,9.06,3.01,14.16,0,17.11-12.14,30.97-27.13,30.97ZM216.35,62.58c14.98,0,27.13,13.87,27.13,30.97,0,11.55-5.54,21.63-13.76,26.95-.66-3.66-2.19-7.03-4.4-9.86,1.55-1.1,3.03-2.35,4.44-3.77,10.1-10.11,12.31-24.3,4.9-31.71-7.4-7.4-21.59-5.2-31.7,4.91-7.84,7.84-10.92,18.14-8.46,25.82h0c-.79.57-1.55,1.16-2.26,1.82-1.94-4.24-3.01-9.06-3.01-14.16,0-17.11,12.14-30.97,27.13-30.97ZM153.28,120.51c-14.98,0-27.13-13.87-27.13-30.97,0-11.55,5.54-21.63,13.76-26.95.66,3.66,2.19,7.03,4.4,9.86-1.55,1.1-3.03,2.35-4.44,3.77-10.1,10.11-12.31,24.3-4.9,31.71,7.4,7.4,21.59,5.2,31.7-4.91,7.84-7.84,10.92-18.14,8.46-25.82h0c.79-.57,1.55-1.16,2.26-1.82,1.94,4.24,3.01,9.06,3.01,14.16,0,17.11-12.14,30.97-27.13,30.97ZM90.2,62.58c14.98,0,27.13,13.87,27.13,30.97,0,11.55-5.54,21.63-13.76,26.95-.66-3.66-2.19-7.03-4.4-9.86,1.55-1.1,3.03-2.35,4.44-3.77,10.1-10.11,12.31-24.3,4.9-31.71-7.4-7.4-21.59-5.2-31.7,4.91-7.84,7.84-10.92,18.14-8.46,25.82h0c-.79.57-1.55,1.16-2.26,1.82-1.94-4.24-3.01-9.06-3.01-14.16,0-17.11,12.14-30.97,27.13-30.97ZM27.13,120.51c-14.98,0-27.13-13.87-27.13-30.97,0-11.55,5.54-21.63,13.76-26.95.66,3.66,2.19,7.03,4.4,9.86-1.55,1.1-3.03,2.35-4.44,3.77-10.1,10.11-12.31,24.3-4.9,31.71,7.4,7.4,21.59,5.2,31.7-4.91,7.84-7.84,10.92-18.14,8.46-25.82h0c.79-.57,1.55-1.16,2.26-1.82,1.94,4.24,3.01,9.06,3.01,14.16,0,17.11-12.14,30.97-27.13,30.97ZM27.13,125.16c-14.98,0-27.13,13.87-27.13,30.97,0,11.55,5.54,21.63,13.76,26.95.66-3.66,2.19-7.03,4.4-9.86-1.55-1.1-3.03-2.35-4.44-3.77-10.1-10.11-12.31-24.3-4.9-31.71,7.4-7.4,21.59-5.2,31.7,4.91,7.84,7.84,10.92,18.14,8.46,25.82h0c.79.57,1.55,1.16,2.26,1.82,1.94-4.24,3.01-9.06,3.01-14.16,0-17.11-12.14-30.97-27.13-30.97ZM90.2,183.09c14.98,0,27.13-13.87,27.13-30.97,0-11.55-5.54-21.63-13.76-26.95-.66,3.66-2.19,7.03-4.4,9.86,1.55,1.1,3.03,2.35,4.44,3.77,10.1,10.11,12.31,24.3,4.9,31.71-7.4,7.4-21.59,5.2-31.7-4.91-7.84-7.84-10.92-18.14-8.46-25.82h0c-.79-.57-1.55-1.16-2.26-1.82-1.94,4.24-3.01,9.06-3.01,14.16,0,17.11,12.14,30.97,27.13,30.97ZM153.28,125.16c-14.98,0-27.13,13.87-27.13,30.97,0,11.55,5.54,21.63,13.76,26.95.66-3.66,2.19-7.03,4.4-9.86-1.55-1.1-3.03-2.35-4.44-3.77-10.1-10.11-12.31-24.3-4.9-31.71,7.4-7.4,21.59-5.2,31.7,4.91,7.84,7.84,10.92,18.14,8.46,25.82h0c.79.57,1.55,1.16,2.26,1.82,1.94-4.24,3.01-9.06,3.01-14.16,0-17.11-12.14-30.97-27.13-30.97ZM216.35,183.09c14.98,0,27.13-13.87,27.13-30.97,0-11.55-5.54-21.63-13.76-26.95-.66,3.66-2.19,7.03-4.4,9.86,1.55,1.1,3.03,2.35,4.44,3.77,10.1,10.11,12.31,24.3,4.9,31.71-7.4,7.4-21.59,5.2-31.7-4.91-7.84-7.84-10.92-18.14-8.46-25.82h0c-.79-.57-1.55-1.16-2.26-1.82-1.94,4.24-3.01,9.06-3.01,14.16,0,17.11,12.14,30.97,27.13,30.97ZM279.43,125.16c-14.98,0-27.13,13.87-27.13,30.97,0,11.55,5.54,21.63,13.76,26.95.66-3.66,2.19-7.03,4.4-9.86-1.55-1.1-3.03-2.35-4.44-3.77-10.1-10.11-12.31-24.3-4.9-31.71,7.4-7.4,21.59-5.2,31.7,4.91,7.84,7.84,10.92,18.14,8.46,25.82h0c.79.57,1.55,1.16,2.26,1.82,1.94-4.24,3.01-9.06,3.01-14.16,0-17.11-12.14-30.97-27.13-30.97ZM342.5,183.09c14.98,0,27.13-13.87,27.13-30.97,0-11.55-5.54-21.63-13.76-26.95-.66,3.66-2.19,7.03-4.4,9.86,1.55,1.1,3.03,2.35,4.44,3.77,10.1,10.11,12.31,24.3,4.9,31.71-7.4,7.4-21.59,5.2-31.7-4.91-7.84-7.84-10.92-18.14-8.46-25.82h0c-.79-.57-1.55-1.16-2.26-1.82-1.94,4.24-3.01,9.06-3.01,14.16,0,17.11,12.14,30.97,27.13,30.97ZM405.57,125.16c-14.98,0-27.13,13.87-27.13,30.97,0,11.55,5.54,21.63,13.76,26.95.66-3.66,2.19-7.03,4.4-9.86-1.55-1.1-3.03-2.35-4.44-3.77-10.1-10.11-12.31-24.3-4.9-31.71,7.4-7.4,21.59-5.2,31.7,4.91,7.84,7.84,10.92,18.14,8.46,25.82h0c.79.57,1.55,1.16,2.26,1.82,1.94-4.24,3.01-9.06,3.01-14.16,0-17.11-12.14-30.97-27.13-30.97ZM468.65,183.09c14.98,0,27.13-13.87,27.13-30.97,0-11.55-5.54-21.63-13.76-26.95-.66,3.66-2.19,7.03-4.4,9.86,1.55,1.1,3.03,2.35,4.44,3.77,10.1,10.11,12.31,24.3,4.9,31.71-7.4,7.4-21.59,5.2-31.7-4.91-7.84-7.84-10.92-18.14-8.46-25.82h0c-.79-.57-1.55-1.16-2.26-1.82-1.94,4.24-3.01,9.06-3.01,14.16,0,17.11,12.14,30.97,27.13,30.97ZM531.72,125.16c-14.98,0-27.13,13.87-27.13,30.97,0,11.55,5.54,21.63,13.76,26.95.66-3.66,2.19-7.03,4.4-9.86-1.55-1.1-3.03-2.35-4.44-3.77-10.1-10.11-12.31-24.3-4.9-31.71,7.4-7.4,21.59-5.2,31.7,4.91,7.84,7.84,10.92,18.14,8.46,25.82h0c.79.57,1.55,1.16,2.26,1.82,1.94-4.24,3.01-9.06,3.01-14.16,0-17.11-12.14-30.97-27.13-30.97ZM594.8,183.09c14.98,0,27.13-13.87,27.13-30.97,0-11.55-5.54-21.63-13.76-26.95-.66,3.66-2.19,7.03-4.4,9.86,1.55,1.1,3.03,2.35,4.44,3.77,10.1,10.11,12.31,24.3,4.9,31.71-7.4,7.4-21.59,5.2-31.7-4.91-7.84-7.84-10.92-18.14-8.46-25.82h0c-.79-.57-1.55-1.16-2.26-1.82-1.94,4.24-3.01,9.06-3.01,14.16,0,17.11,12.14,30.97,27.13,30.97ZM657.87,125.16c-14.98,0-27.13,13.87-27.13,30.97,0,11.55,5.54,21.63,13.76,26.95.66-3.66,2.19-7.03,4.4-9.86-1.55-1.1-3.03-2.35-4.44-3.77-10.1-10.11-12.31-24.3-4.9-31.71,7.4-7.4,21.59-5.2,31.7,4.91,7.84,7.84,10.92,18.14,8.46,25.82h0c.79.57,1.55,1.16,2.26,1.82,1.94-4.24,3.01-9.06,3.01-14.16,0-17.11-12.14-30.97-27.13-30.97ZM720.95,183.09c14.98,0,27.13-13.87,27.13-30.97,0-11.55-5.54-21.63-13.76-26.95-.66,3.66-2.19,7.03-4.4,9.86,1.55,1.1,3.03,2.35,4.44,3.77,10.1,10.11,12.31,24.3,4.9,31.71-7.4,7.4-21.59,5.2-31.7-4.91-7.84-7.84-10.92-18.14-8.46-25.82h0c-.79-.57-1.55-1.16-2.26-1.82-1.94,4.24-3.01,9.06-3.01,14.16,0,17.11,12.14,30.97,27.13,30.97ZM784.02,125.16c-14.98,0-27.13,13.87-27.13,30.97,0,11.55,5.54,21.63,13.76,26.95.66-3.66,2.19-7.03,4.4-9.86-1.55-1.1-3.03-2.35-4.44-3.77-10.1-10.11-12.31-24.3-4.9-31.71,7.4-7.4,21.59-5.2,31.7,4.91,7.84,7.84,10.92,18.14,8.46,25.82h0c.79.57,1.55,1.16,2.26,1.82,1.94-4.24,3.01-9.06,3.01-14.16,0-17.11-12.14-30.97-27.13-30.97ZM847.1,183.09c14.98,0,27.13-13.87,27.13-30.97,0-11.55-5.54-21.63-13.76-26.95-.66,3.66-2.19,7.03-4.4,9.86,1.55,1.1,3.03,2.35,4.44,3.77,10.1,10.11,12.31,24.3,4.9,31.71-7.4,7.4-21.59,5.2-31.7-4.91-7.84-7.84-10.92-18.14-8.46-25.82h0c-.79-.57-1.55-1.16-2.26-1.82-1.94,4.24-3.01,9.06-3.01,14.16,0,17.11,12.14,30.97,27.13,30.97ZM910.17,125.16c-14.98,0-27.13,13.87-27.13,30.97,0,11.55,5.54,21.63,13.76,26.95.66-3.66,2.19-7.03,4.4-9.86-1.55-1.1-3.03-2.35-4.44-3.77-10.1-10.11-12.31-24.3-4.9-31.71,7.4-7.4,21.59-5.2,31.7,4.91,7.84,7.84,10.92,18.14,8.46,25.82h0c.79.57,1.55,1.16,2.26,1.82,1.94-4.24,3.01-9.06,3.01-14.16,0-17.11-12.14-30.97-27.13-30.97ZM973.25,183.09c14.98,0,27.13-13.87,27.13-30.97,0-11.55-5.54-21.63-13.76-26.95-.66,3.66-2.19,7.03-4.4,9.86,1.55,1.1,3.03,2.35,4.44,3.77,10.1,10.11,12.31,24.3,4.9,31.71-7.4,7.4-21.59,5.2-31.7-4.91-7.84-7.84-10.92-18.14-8.46-25.82h0c-.79-.57-1.55-1.16-2.26-1.82-1.94,4.24-3.01,9.06-3.01,14.16,0,17.11,12.14,30.97,27.13,30.97ZM973.25,187.74c14.98,0,27.13,13.87,27.13,30.97,0,11.55-5.54,21.63-13.76,26.95-.66-3.66-2.19-7.03-4.4-9.86,1.55-1.1,3.03-2.35,4.44-3.77,10.1-10.11,12.31-24.3,4.9-31.71-7.4-7.4-21.59-5.2-31.7,4.91-7.84,7.84-10.92,18.14-8.46,25.82h0c-.79.57-1.55,1.16-2.26,1.82-1.94-4.24-3.01-9.06-3.01-14.16,0-17.11,12.14-30.97,27.13-30.97ZM910.17,245.67c-14.98,0-27.13-13.87-27.13-30.97,0-11.55,5.54-21.63,13.76-26.95.66,3.66,2.19,7.03,4.4,9.86-1.55,1.1-3.03,2.35-4.44,3.77-10.1,10.11-12.31,24.3-4.9,31.71,7.4,7.4,21.59,5.2,31.7-4.91,7.84-7.84,10.92-18.14,8.46-25.82h0c.79-.57,1.55-1.16,2.26-1.82,1.94,4.24,3.01,9.06,3.01,14.16,0,17.11-12.14,30.97-27.13,30.97ZM847.1,187.74c14.98,0,27.13,13.87,27.13,30.97,0,11.55-5.54,21.63-13.76,26.95-.66-3.66-2.19-7.03-4.4-9.86,1.55-1.1,3.03-2.35,4.44-3.77,10.1-10.11,12.31-24.3,4.9-31.71-7.4-7.4-21.59-5.2-31.7,4.91-7.84,7.84-10.92,18.14-8.46,25.82h0c-.79.57-1.55,1.16-2.26,1.82-1.94-4.24-3.01-9.06-3.01-14.16,0-17.11,12.14-30.97,27.13-30.97ZM784.02,245.67c-14.98,0-27.13-13.87-27.13-30.97,0-11.55,5.54-21.63,13.76-26.95.66,3.66,2.19,7.03,4.4,9.86-1.55,1.1-3.03,2.35-4.44,3.77-10.1,10.11-12.31,24.3-4.9,31.71,7.4,7.4,21.59,5.2,31.7-4.91,7.84-7.84,10.92-18.14,8.46-25.82h0c.79-.57,1.55-1.16,2.26-1.82,1.94,4.24,3.01,9.06,3.01,14.16,0,17.11-12.14,30.97-27.13,30.97ZM720.95,187.74c14.98,0,27.13,13.87,27.13,30.97,0,11.55-5.54,21.63-13.76,26.95-.66-3.66-2.19-7.03-4.4-9.86,1.55-1.1,3.03-2.35,4.44-3.77,10.1-10.11,12.31-24.3,4.9-31.71-7.4-7.4-21.59-5.2-31.7,4.91-7.84,7.84-10.92,18.14-8.46,25.82h0c-.79.57-1.55,1.16-2.26,1.82-1.94-4.24-3.01-9.06-3.01-14.16,0-17.11,12.14-30.97,27.13-30.97ZM657.87,245.67c-14.98,0-27.13-13.87-27.13-30.97,0-11.55,5.54-21.63,13.76-26.95.66,3.66,2.19,7.03,4.4,9.86-1.55,1.1-3.03,2.35-4.44,3.77-10.1,10.11-12.31,24.3-4.9,31.71,7.4,7.4,21.59,5.2,31.7-4.91,7.84-7.84,10.92-18.14,8.46-25.82h0c.79-.57,1.55-1.16,2.26-1.82,1.94,4.24,3.01,9.06,3.01,14.16,0,17.11-12.14,30.97-27.13,30.97ZM594.8,187.74c14.98,0,27.13,13.87,27.13,30.97,0,11.55-5.54,21.63-13.76,26.95-.66-3.66-2.19-7.03-4.4-9.86,1.55-1.1,3.03-2.35,4.44-3.77,10.1-10.11,12.31-24.3,4.9-31.71-7.4-7.4-21.59-5.2-31.7,4.91-7.84,7.84-10.92,18.14-8.46,25.82h0c-.79.57-1.55,1.16-2.26,1.82-1.94-4.24-3.01-9.06-3.01-14.16,0-17.11,12.14-30.97,27.13-30.97ZM531.72,245.67c-14.98,0-27.13-13.87-27.13-30.97,0-11.55,5.54-21.63,13.76-26.95.66,3.66,2.19,7.03,4.4,9.86-1.55,1.1-3.03,2.35-4.44,3.77-10.1,10.11-12.31,24.3-4.9,31.71,7.4,7.4,21.59,5.2,31.7-4.91,7.84-7.84,10.92-18.14,8.46-25.82h0c.79-.57,1.55-1.16,2.26-1.82,1.94,4.24,3.01,9.06,3.01,14.16,0,17.11-12.14,30.97-27.13,30.97ZM468.65,187.74c14.98,0,27.13,13.87,27.13,30.97,0,11.55-5.54,21.63-13.76,26.95-.66-3.66-2.19-7.03-4.4-9.86,1.55-1.1,3.03-2.35,4.44-3.77,10.1-10.11,12.31-24.3,4.9-31.71-7.4-7.4-21.59-5.2-31.7,4.91-7.84,7.84-10.92,18.14-8.46,25.82h0c-.79.57-1.55,1.16-2.26,1.82-1.94-4.24-3.01-9.06-3.01-14.16,0-17.11,12.14-30.97,27.13-30.97ZM405.57,245.67c-14.98,0-27.13-13.87-27.13-30.97,0-11.55,5.54-21.63,13.76-26.95.66,3.66,2.19,7.03,4.4,9.86-1.55,1.1-3.03,2.35-4.44,3.77-10.1,10.11-12.31,24.3-4.9,31.71,7.4,7.4,21.59,5.2,31.7-4.91,7.84-7.84,10.92-18.14,8.46-25.82h0c.79-.57,1.55-1.16,2.26-1.82,1.94,4.24,3.01,9.06,3.01,14.16,0,17.11-12.14,30.97-27.13,30.97ZM342.5,187.74c14.98,0,27.13,13.87,27.13,30.97,0,11.55-5.54,21.63-13.76,26.95-.66-3.66-2.19-7.03-4.4-9.86,1.55-1.1,3.03-2.35,4.44-3.77,10.1-10.11,12.31-24.3,4.9-31.71-7.4-7.4-21.59-5.2-31.7,4.91-7.84,7.84-10.92,18.14-8.46,25.82h0c-.79.57-1.55,1.16-2.26,1.82-1.94-4.24-3.01-9.06-3.01-14.16,0-17.11,12.14-30.97,27.13-30.97ZM279.43,245.67c-14.98,0-27.13-13.87-27.13-30.97,0-11.55,5.54-21.63,13.76-26.95.66,3.66,2.19,7.03,4.4,9.86-1.55,1.1-3.03,2.35-4.44,3.77-10.1,10.11-12.31,24.3-4.9,31.71,7.4,7.4,21.59,5.2,31.7-4.91,7.84-7.84,10.92-18.14,8.46-25.82h0c.79-.57,1.55-1.16,2.26-1.82,1.94,4.24,3.01,9.06,3.01,14.16,0,17.11-12.14,30.97-27.13,30.97ZM216.35,187.74c14.98,0,27.13,13.87,27.13,30.97,0,11.55-5.54,21.63-13.76,26.95-.66-3.66-2.19-7.03-4.4-9.86,1.55-1.1,3.03-2.35,4.44-3.77,10.1-10.11,12.31-24.3,4.9-31.71-7.4-7.4-21.59-5.2-31.7,4.91-7.84,7.84-10.92,18.14-8.46,25.82h0c-.79.57-1.55,1.16-2.26,1.82-1.94-4.24-3.01-9.06-3.01-14.16,0-17.11,12.14-30.97,27.13-30.97ZM153.28,245.67c-14.98,0-27.13-13.87-27.13-30.97,0-11.55,5.54-21.63,13.76-26.95.66,3.66,2.19,7.03,4.4,9.86-1.55,1.1-3.03,2.35-4.44,3.77-10.1,10.11-12.31,24.3-4.9,31.71,7.4,7.4,21.59,5.2,31.7-4.91,7.84-7.84,10.92-18.14,8.46-25.82h0c.79-.57,1.55-1.16,2.26-1.82,1.94,4.24,3.01,9.06,3.01,14.16,0,17.11-12.14,30.97-27.13,30.97ZM90.2,187.74c14.98,0,27.13,13.87,27.13,30.97,0,11.55-5.54,21.63-13.76,26.95-.66-3.66-2.19-7.03-4.4-9.86,1.55-1.1,3.03-2.35,4.44-3.77,10.1-10.11,12.31-24.3,4.9-31.71-7.4-7.4-21.59-5.2-31.7,4.91-7.84,7.84-10.92,18.14-8.46,25.82h0c-.79.57-1.55,1.16-2.26,1.82-1.94-4.24-3.01-9.06-3.01-14.16,0-17.11,12.14-30.97,27.13-30.97ZM27.13,245.67c-14.98,0-27.13-13.87-27.13-30.97,0-11.55,5.54-21.63,13.76-26.95.66,3.66,2.19,7.03,4.4,9.86-1.55,1.1-3.03,2.35-4.44,3.77-10.1,10.11-12.31,24.3-4.9,31.71,7.4,7.4,21.59,5.2,31.7-4.91,7.84-7.84,10.92-18.14,8.46-25.82h0c.79-.57,1.55-1.16,2.26-1.82,1.94,4.24,3.01,9.06,3.01,14.16,0,17.11-12.14,30.97-27.13,30.97Z"/>
</svg>