<?xml version="1.0" encoding="UTF-8"?>
<svg id="Layer_1" data-name="Layer 1" xmlns="http://www.w3.org/2000/svg" viewBox="0 0 321.48 18.61">
  <defs>
    <style>
      .cls-1 {
        fill: #231f20;
      }
    </style>
  </defs>
  <path class="cls-1" d="M8.72,0C3.9,0,0,4.46,0,9.95c0,3.71,1.78,6.95,4.42,8.66.21-1.18.7-2.26,1.41-3.17-.5-.35-.97-.76-1.43-1.21C1.16,10.99.45,6.43,2.84,4.05c2.38-2.38,6.94-1.67,10.19,1.58,2.52,2.52,3.51,5.83,2.72,8.3h0c.25.18.5.37.73.58.62-1.36.97-2.91.97-4.55C17.43,4.46,13.53,0,8.72,0Z"/>
  <path class="cls-1" d="M28.99,18.61c4.81,0,8.72-4.46,8.72-9.95,0-3.71-1.78-6.95-4.42-8.66-.21,1.18-.7,2.26-1.41,3.17.5.35.97.76,1.43,1.21,3.25,3.25,3.95,7.81,1.57,10.19-2.38,2.38-6.94,1.67-10.19-1.58-2.52-2.52-3.51-5.83-2.72-8.3h0c-.25-.18-.5-.37-.73-.58-.62,1.36-.97,2.91-.97,4.55,0,5.5,3.9,9.95,8.72,9.95Z"/>
  <path class="cls-1" d="M49.26,0c-4.81,0-8.72,4.46-8.72,9.95,0,3.71,1.78,6.95,4.42,8.66.21-1.18.7-2.26,1.41-3.17-.5-.35-.97-.76-1.43-1.21-3.25-3.25-3.95-7.81-1.57-10.19,2.38-2.38,6.94-1.67,10.19,1.58,2.52,2.52,3.51,5.83,2.72,8.3h0c.25.18.5.37.73.58.62-1.36.97-2.91.97-4.55,0-5.5-3.9-9.95-8.72-9.95Z"/>
  <path class="cls-1" d="M69.53,18.61c4.81,0,8.72-4.46,8.72-9.95,0-3.71-1.78-6.95-4.42-8.66-.21,1.18-.7,2.26-1.41,3.17.5.35.97.76,1.43,1.21,3.25,3.25,3.95,7.81,1.57,10.19-2.38,2.38-6.94,1.67-10.19-1.58-2.52-2.52-3.51-5.83-2.72-8.3h0c-.25-.18-.5-.37-.73-.58-.62,1.36-.97,2.91-.97,4.55,0,5.5,3.9,9.95,8.72,9.95Z"/>
  <path class="cls-1" d="M89.8,0c-4.81,0-8.72,4.46-8.72,9.95,0,3.71,1.78,6.95,4.42,8.66.21-1.18.7-2.26,1.41-3.17-.5-.35-.97-.76-1.43-1.21-3.25-3.25-3.95-7.81-1.57-10.19,2.38-2.38,6.94-1.67,10.19,1.58,2.52,2.52,3.51,5.83,2.72,8.3h0c.25.18.5.37.73.58.62-1.36.97-2.91.97-4.55,0-5.5-3.9-9.95-8.72-9.95Z"/>
  <path class="cls-1" d="M110.07,18.61c4.81,0,8.72-4.46,8.72-9.95,0-3.71-1.78-6.95-4.42-8.66-.21,1.18-.7,2.26-1.41,3.17.5.35.97.76,1.43,1.21,3.25,3.25,3.95,7.81,1.57,10.19-2.38,2.38-6.94,1.67-10.19-1.58-2.52-2.52-3.51-5.83-2.72-8.3h0c-.25-.18-.5-.37-.73-.58-.62,1.36-.97,2.91-.97,4.55,0,5.5,3.9,9.95,8.72,9.95Z"/>
  <path class="cls-1" d="M130.33,0c-4.81,0-8.72,4.46-8.72,9.95,0,3.71,1.78,6.95,4.42,8.66.21-1.18.7-2.26,1.41-3.17-.5-.35-.97-.76-1.43-1.21-3.25-3.25-3.95-7.81-1.57-10.19,2.38-2.38,6.94-1.67,10.19,1.58,2.52,2.52,3.51,5.83,2.72,8.3h0c.25.18.5.37.73.58.62-1.36.97-2.91.97-4.55,0-5.5-3.9-9.95-8.72-9.95Z"/>
  <path class="cls-1" d="M150.6,18.61c4.81,0,8.72-4.46,8.72-9.95,0-3.71-1.78-6.95-4.42-8.66-.21,1.18-.7,2.26-1.41,3.17.5.35.97.76,1.43,1.21,3.25,3.25,3.95,7.81,1.57,10.19-2.38,2.38-6.94,1.67-10.19-1.58-2.52-2.52-3.51-5.83-2.72-8.3h0c-.25-.18-.5-.37-.73-.58-.62,1.36-.97,2.91-.97,4.55,0,5.5,3.9,9.95,8.72,9.95Z"/>
  <path class="cls-1" d="M170.87,0c-4.81,0-8.72,4.46-8.72,9.95,0,3.71,1.78,6.95,4.42,8.66.21-1.18.7-2.26,1.41-3.17-.5-.35-.97-.76-1.43-1.21-3.25-3.25-3.95-7.81-1.57-10.19,2.38-2.38,6.94-1.67,10.19,1.58,2.52,2.52,3.51,5.83,2.72,8.3h0c.25.18.5.37.73.58.62-1.36.97-2.91.97-4.55,0-5.5-3.9-9.95-8.72-9.95Z"/>
  <path class="cls-1" d="M191.14,18.61c4.81,0,8.72-4.46,8.72-9.95,0-3.71-1.78-6.95-4.42-8.66-.21,1.18-.7,2.26-1.41,3.17.5.35.97.76,1.43,1.21,3.25,3.25,3.95,7.81,1.57,10.19-2.38,2.38-6.94,1.67-10.19-1.58-2.52-2.52-3.51-5.83-2.72-8.3h0c-.25-.18-.5-.37-.73-.58-.62,1.36-.97,2.91-.97,4.55,0,5.5,3.9,9.95,8.72,9.95Z"/>
  <path class="cls-1" d="M211.41,0c-4.81,0-8.72,4.46-8.72,9.95,0,3.71,1.78,6.95,4.42,8.66.21-1.18.7-2.26,1.41-3.17-.5-.35-.97-.76-1.43-1.21-3.25-3.25-3.95-7.81-1.57-10.19,2.38-2.38,6.94-1.67,10.19,1.58,2.52,2.52,3.51,5.83,2.72,8.3h0c.25.18.5.37.73.58.62-1.36.97-2.91.97-4.55,0-5.5-3.9-9.95-8.72-9.95Z"/>
  <path class="cls-1" d="M231.68,18.61c4.81,0,8.72-4.46,8.72-9.95,0-3.71-1.78-6.95-4.42-8.66-.21,1.18-.7,2.26-1.41,3.17.5.35.97.76,1.43,1.21,3.25,3.25,3.95,7.81,1.57,10.19-2.38,2.38-6.94,1.67-10.19-1.58-2.52-2.52-3.51-5.83-2.72-8.3h0c-.25-.18-.5-.37-.73-.58-.62,1.36-.97,2.91-.97,4.55,0,5.5,3.9,9.95,8.72,9.95Z"/>
  <path class="cls-1" d="M251.95,0c-4.81,0-8.72,4.46-8.72,9.95,0,3.71,1.78,6.95,4.42,8.66.21-1.18.7-2.26,1.41-3.17-.5-.35-.97-.76-1.43-1.21-3.25-3.25-3.95-7.81-1.57-10.19,2.38-2.38,6.94-1.67,10.19,1.58,2.52,2.52,3.51,5.83,2.72,8.3h0c.25.18.5.37.73.58.62-1.36.97-2.91.97-4.55,0-5.5-3.9-9.95-8.72-9.95Z"/>
  <path class="cls-1" d="M272.22,18.61c4.81,0,8.72-4.46,8.72-9.95,0-3.71-1.78-6.95-4.42-8.66-.21,1.18-.7,2.26-1.41,3.17.5.35.97.76,1.43,1.21,3.25,3.25,3.95,7.81,1.57,10.19-2.38,2.38-6.94,1.67-10.19-1.58-2.52-2.52-3.51-5.83-2.72-8.3h0c-.25-.18-.5-.37-.73-.58-.62,1.36-.97,2.91-.97,4.55,0,5.5,3.9,9.95,8.72,9.95Z"/>
  <path class="cls-1" d="M292.49,0c-4.81,0-8.72,4.46-8.72,9.95,0,3.71,1.78,6.95,4.42,8.66.21-1.18.7-2.26,1.41-3.17-.5-.35-.97-.76-1.43-1.21-3.25-3.25-3.95-7.81-1.57-10.19,2.38-2.38,6.94-1.67,10.19,1.58,2.52,2.52,3.51,5.83,2.72,8.3h0c.25.18.5.37.73.58.62-1.36.97-2.91.97-4.55,0-5.5-3.9-9.95-8.72-9.95Z"/>
  <path class="cls-1" d="M312.76,18.61c4.81,0,8.72-4.46,8.72-9.95,0-3.71-1.78-6.95-4.42-8.66-.21,1.18-.7,2.26-1.41,3.17.5.35.97.76,1.43,1.21,3.25,3.25,3.95,7.81,1.57,10.19-2.38,2.38-6.94,1.67-10.19-1.58-2.52-2.52-3.51-5.83-2.72-8.3h0c-.25-.18-.5-.37-.73-.58-.62,1.36-.97,2.91-.97,4.55,0,5.5,3.9,9.95,8.72,9.95Z"/>
</svg>