<?xml version="1.0" encoding="UTF-8"?>
<svg id="Layer_1" data-name="Layer 1" xmlns="http://www.w3.org/2000/svg" viewBox="0 0 29.08 17.83">
  <defs>
    <style>
      .cls-1 {
        fill: #231f20;
      }
    </style>
  </defs>
  <path class="cls-1" d="M28.49,12.75c1.85-4.44-.75-9.76-5.83-11.88-3.43-1.43-7.1-1.03-9.7.74,1,.65,1.81,1.52,2.38,2.52.52-.32,1.07-.61,1.67-.85,4.25-1.74,8.73-.64,10.01,2.47,1.28,3.11-1.13,7.05-5.38,8.79-3.3,1.35-6.73.99-8.7-.69h0c-.26.17-.53.32-.81.45,1.02,1.1,2.32,2.02,3.83,2.65,5.07,2.12,10.69.23,12.54-4.21Z"/>
  <rect class="cls-1" y="8.02" width="18.94" height="1.78"/>
</svg>