<?xml version="1.0" encoding="UTF-8"?>
<svg id="Layer_1" data-name="Layer 1" xmlns="http://www.w3.org/2000/svg" viewBox="0 0 32.21 17.83">
  <defs>
    <style>
      .cls-1 {
        fill: #231f20;
      }
    </style>
  </defs>
  <path class="cls-1" d="M31.4,13.86h0c-1.97,1.68-5.41,2.04-8.7.69-4.25-1.75-6.66-5.68-5.38-8.79,1.28-3.11,5.76-4.22,10.01-2.47.59.24,1.15.53,1.67.85.56-1,1.38-1.88,2.38-2.52-2.6-1.78-6.27-2.17-9.7-.74-2.58,1.08-4.52,2.99-5.56,5.19-1.04-2.2-2.98-4.11-5.56-5.19C7.12-.56,3.44-.17.85,1.61c1,.65,1.81,1.52,2.38,2.52.52-.32,1.07-.61,1.67-.85,4.25-1.74,8.73-.64,10.01,2.47,1.28,3.11-1.13,7.05-5.38,8.79-3.3,1.35-6.73.99-8.7-.69h0c-.26.17-.53.32-.81.45,1.02,1.1,2.32,2.02,3.83,2.65,4.86,2.03,10.21.38,12.28-3.67,2.07,4.05,7.42,5.7,12.28,3.67,1.51-.63,2.81-1.55,3.83-2.65-.28-.13-.55-.28-.81-.45Z"/>
</svg>