<?xml version="1.0" encoding="UTF-8"?>
<svg id="Layer_1" data-name="Layer 1" xmlns="http://www.w3.org/2000/svg" viewBox="0 0 17.43 18.61">
  <defs>
    <style>
      .cls-1 {
        fill: #231f20;
      }
    </style>
  </defs>
  <path class="cls-1" d="M8.72,18.61c4.81,0,8.72-4.46,8.72-9.95,0-3.71-1.78-6.95-4.42-8.66-.21,1.18-.7,2.26-1.41,3.17.5.35.97.76,1.43,1.21,3.25,3.25,3.95,7.81,1.57,10.19-2.38,2.38-6.94,1.67-10.19-1.58C1.89,10.47.9,7.16,1.69,4.69h0c-.25-.18-.5-.37-.73-.58-.62,1.36-.97,2.91-.97,4.55,0,5.5,3.9,9.95,8.72,9.95Z"/>
</svg>