<?xml version="1.0" encoding="UTF-8"?>
<svg id="Layer_1" xmlns="http://www.w3.org/2000/svg" xmlns:xlink="http://www.w3.org/1999/xlink" version="1.1" viewBox="0 0 1000.4 245.7">
  <!-- Generator: Adobe Illustrator 30.3.0, SVG Export Plug-In . SVG Version: 2.1.3 Build 182)  -->
  <defs>
    <style>
      .st0 {
        fill: url(#linear-gradient);
        isolation: isolate;
        opacity: .5;
      }
    </style>
    <linearGradient id="linear-gradient" x1="500.2" y1="246.2" x2="500.2" y2="-20.6" gradientTransform="translate(0 245.9) scale(1 -1)" gradientUnits="userSpaceOnUse">
      <stop offset="0" stop-color="#fff" stop-opacity="0"/>
      <stop offset="1" stop-color="#231f20"/>
    </linearGradient>
  </defs>
  <path class="st0" d="M27.1,0C12.1,0,0,13.9,0,31s5.5,21.6,13.8,26.9c.7-3.7,2.2-7,4.4-9.9-1.5-1.1-3-2.3-4.4-3.8C3.6,34.2,1.4,20,8.8,12.6c7.4-7.4,21.6-5.2,31.7,4.9,7.8,7.8,10.9,18.1,8.5,25.8h0c.8.6,1.5,1.2,2.3,1.8,1.9-4.2,3-9.1,3-14.2C54.2,13.9,42.1,0,27.1,0ZM90.2,57.9c15,0,27.1-13.9,27.1-31S111.8,5.3,103.6,0c-.7,3.7-2.2,7-4.4,9.9,1.6,1.1,3,2.3,4.4,3.8,10.1,10.1,12.3,24.3,4.9,31.7-7.4,7.4-21.6,5.2-31.7-4.9-7.8-7.8-10.9-18.1-8.5-25.8h0c-.8-.6-1.6-1.2-2.3-1.8-1.9,4.2-3,9.1-3,14.2,0,17.1,12.1,31,27.1,31h0ZM153.3,0C138.3,0,126.2,13.9,126.2,31s5.5,21.6,13.8,26.9c.7-3.7,2.2-7,4.4-9.9-1.6-1.1-3-2.3-4.4-3.8-10.1-10.1-12.3-24.3-4.9-31.7,7.4-7.4,21.6-5.2,31.7,4.9,7.8,7.8,10.9,18.1,8.5,25.8h0c.8.6,1.6,1.2,2.3,1.8,1.9-4.2,3-9.1,3-14.2,0-17.1-12.1-31-27.1-31h0ZM216.4,57.9c15,0,27.1-13.9,27.1-31S237.9,5.3,229.7,0c-.7,3.7-2.2,7-4.4,9.9,1.6,1.1,3,2.3,4.4,3.8,10.1,10.1,12.3,24.3,4.9,31.7-7.4,7.4-21.6,5.2-31.7-4.9-7.8-7.8-10.9-18.1-8.5-25.8h0c-.8-.6-1.6-1.2-2.3-1.8-1.9,4.2-3,9.1-3,14.2,0,17.1,12.1,31,27.1,31h0ZM279.4,0C264.4,0,252.3,13.9,252.3,31s5.5,21.6,13.8,26.9c.7-3.7,2.2-7,4.4-9.9-1.5-1.1-3-2.3-4.4-3.8-10.1-10.1-12.3-24.3-4.9-31.7,7.4-7.4,21.6-5.2,31.7,4.9,7.8,7.8,10.9,18.1,8.5,25.8h0c.8.6,1.5,1.2,2.3,1.8,1.9-4.2,3-9.1,3-14.2,0-17.1-12.1-31-27.1-31h0ZM342.5,57.9c15,0,27.1-13.9,27.1-31S364.1,5.3,355.9,0c-.7,3.7-2.2,7-4.4,9.9,1.5,1.1,3,2.3,4.4,3.8,10.1,10.1,12.3,24.3,4.9,31.7-7.4,7.4-21.6,5.2-31.7-4.9-7.8-7.8-10.9-18.1-8.5-25.8h0c-.8-.6-1.5-1.2-2.3-1.8-1.9,4.2-3,9.1-3,14.2,0,17.1,12.1,31,27.1,31h0ZM405.6,0C390.6,0,378.4,13.9,378.4,31s5.5,21.6,13.8,26.9c.7-3.7,2.2-7,4.4-9.9-1.5-1.1-3-2.3-4.4-3.8-10.1-10.1-12.3-24.3-4.9-31.7,7.4-7.4,21.6-5.2,31.7,4.9,7.8,7.8,10.9,18.1,8.5,25.8h0c.8.6,1.5,1.2,2.3,1.8,1.9-4.2,3-9.1,3-14.2,0-17.1-12.1-31-27.1-31h0ZM468.6,57.9c15,0,27.1-13.9,27.1-31S490.2,5.3,482,0c-.7,3.7-2.2,7-4.4,9.9,1.5,1.1,3,2.3,4.4,3.8,10.1,10.1,12.3,24.3,4.9,31.7-7.4,7.4-21.6,5.2-31.7-4.9-7.8-7.8-10.9-18.1-8.5-25.8h0c-.8-.6-1.5-1.2-2.3-1.8-1.9,4.2-3,9.1-3,14.2,0,17.1,12.1,31,27.1,31h0ZM531.7,0C516.7,0,504.6,13.9,504.6,31s5.5,21.6,13.8,26.9c.7-3.7,2.2-7,4.4-9.9-1.5-1.1-3-2.3-4.4-3.8-10.1-10.1-12.3-24.3-4.9-31.7,7.4-7.4,21.6-5.2,31.7,4.9,7.8,7.8,10.9,18.1,8.5,25.8h0c.8.6,1.5,1.2,2.3,1.8,1.9-4.2,3-9.1,3-14.2,0-17.1-12.1-31-27.1-31h0ZM594.8,57.9c15,0,27.1-13.9,27.1-31s-5.5-21.6-13.8-27c-.7,3.7-2.2,7-4.4,9.9,1.5,1.1,3,2.3,4.4,3.8,10.1,10.1,12.3,24.3,4.9,31.7-7.4,7.4-21.6,5.2-31.7-4.9-7.8-7.8-10.9-18.1-8.5-25.8h0c-.8-.6-1.5-1.2-2.3-1.8-1.9,4.2-3,9.1-3,14.2,0,17.1,12.1,31,27.1,31h0ZM657.9,0C642.9,0,630.7,13.9,630.7,31s5.5,21.6,13.8,26.9c.7-3.7,2.2-7,4.4-9.9-1.5-1.1-3-2.3-4.4-3.8-10.1-10.1-12.3-24.3-4.9-31.7,7.4-7.4,21.6-5.2,31.7,4.9,7.8,7.8,10.9,18.1,8.5,25.8h0c.8.6,1.5,1.2,2.3,1.8,1.9-4.2,3-9.1,3-14.2,0-17.1-12.1-31-27.1-31h0ZM721,57.9c15,0,27.1-13.9,27.1-31s-5.5-21.6-13.8-27c-.7,3.7-2.2,7-4.4,9.9,1.5,1.1,3,2.3,4.4,3.8,10.1,10.1,12.3,24.3,4.9,31.7-7.4,7.4-21.6,5.2-31.7-4.9-7.8-7.8-10.9-18.1-8.5-25.8h0c-.8-.6-1.5-1.2-2.3-1.8-1.9,4.2-3,9.1-3,14.2,0,17.1,12.1,31,27.1,31h0ZM784,0C769,0,756.9,13.9,756.9,31s5.5,21.6,13.8,26.9c.7-3.7,2.2-7,4.4-9.9-1.5-1.1-3-2.3-4.4-3.8-10.1-10.1-12.3-24.3-4.9-31.7,7.4-7.4,21.6-5.2,31.7,4.9,7.8,7.8,10.9,18.1,8.5,25.8h0c.8.6,1.5,1.2,2.3,1.8,1.9-4.2,3-9.1,3-14.2,0-17.1-12.1-31-27.1-31h0ZM847.1,57.9c15,0,27.1-13.9,27.1-31s-5.5-21.6-13.8-27c-.7,3.7-2.2,7-4.4,9.9,1.5,1.1,3,2.3,4.4,3.8,10.1,10.1,12.3,24.3,4.9,31.7-7.4,7.4-21.6,5.2-31.7-4.9-7.8-7.8-10.9-18.1-8.5-25.8h0c-.8-.6-1.5-1.2-2.3-1.8-1.9,4.2-3,9.1-3,14.2,0,17.1,12.1,31,27.1,31h0ZM910.2,0C895.2,0,883,13.9,883,31s5.5,21.6,13.8,26.9c.7-3.7,2.2-7,4.4-9.9-1.5-1.1-3-2.3-4.4-3.8-10.1-10.1-12.3-24.3-4.9-31.7,7.4-7.4,21.6-5.2,31.7,4.9,7.8,7.8,10.9,18.1,8.5,25.8h0c.8.6,1.5,1.2,2.3,1.8,1.9-4.2,3-9.1,3-14.2,0-17.1-12.1-31-27.1-31h0ZM973.2,57.9c15,0,27.1-13.9,27.1-31s-5.5-21.6-13.8-27c-.7,3.7-2.2,7-4.4,9.9,1.5,1.1,3,2.3,4.4,3.8,10.1,10.1,12.3,24.3,4.9,31.7-7.4,7.4-21.6,5.2-31.7-4.9-7.8-7.8-10.9-18.1-8.5-25.8h0c-.8-.6-1.5-1.2-2.3-1.8-1.9,4.2-3,9.1-3,14.2,0,17.1,12.1,31,27.1,31h0ZM973.2,62.6c15,0,27.1,13.9,27.1,31s-5.5,21.6-13.8,26.9c-.7-3.7-2.2-7-4.4-9.9,1.5-1.1,3-2.3,4.4-3.8,10.1-10.1,12.3-24.3,4.9-31.7-7.4-7.4-21.6-5.2-31.7,4.9-7.8,7.8-10.9,18.1-8.5,25.8h0c-.8.6-1.5,1.2-2.3,1.8-1.9-4.2-3-9.1-3-14.2,0-17.1,12.1-31,27.1-31h0ZM910.2,120.5c-15,0-27.1-13.9-27.1-31s5.5-21.6,13.8-27c.7,3.7,2.2,7,4.4,9.9-1.5,1.1-3,2.3-4.4,3.8-10.1,10.1-12.3,24.3-4.9,31.7,7.4,7.4,21.6,5.2,31.7-4.9,7.8-7.8,10.9-18.1,8.5-25.8h0c.8-.6,1.5-1.2,2.3-1.8,1.9,4.2,3,9.1,3,14.2,0,17.1-12.1,31-27.1,31h0ZM847.1,62.6c15,0,27.1,13.9,27.1,31s-5.5,21.6-13.8,26.9c-.7-3.7-2.2-7-4.4-9.9,1.5-1.1,3-2.3,4.4-3.8,10.1-10.1,12.3-24.3,4.9-31.7-7.4-7.4-21.6-5.2-31.7,4.9-7.8,7.8-10.9,18.1-8.5,25.8h0c-.8.6-1.5,1.2-2.3,1.8-1.9-4.2-3-9.1-3-14.2,0-17.1,12.1-31,27.1-31h0ZM784,120.5c-15,0-27.1-13.9-27.1-31s5.5-21.6,13.8-27c.7,3.7,2.2,7,4.4,9.9-1.5,1.1-3,2.3-4.4,3.8-10.1,10.1-12.3,24.3-4.9,31.7,7.4,7.4,21.6,5.2,31.7-4.9,7.8-7.8,10.9-18.1,8.5-25.8h0c.8-.6,1.5-1.2,2.3-1.8,1.9,4.2,3,9.1,3,14.2,0,17.1-12.1,31-27.1,31h0ZM721,62.6c15,0,27.1,13.9,27.1,31s-5.5,21.6-13.8,26.9c-.7-3.7-2.2-7-4.4-9.9,1.5-1.1,3-2.3,4.4-3.8,10.1-10.1,12.3-24.3,4.9-31.7-7.4-7.4-21.6-5.2-31.7,4.9-7.8,7.8-10.9,18.1-8.5,25.8h0c-.8.6-1.5,1.2-2.3,1.8-1.9-4.2-3-9.1-3-14.2,0-17.1,12.1-31,27.1-31h0ZM657.9,120.5c-15,0-27.1-13.9-27.1-31s5.5-21.6,13.8-27c.7,3.7,2.2,7,4.4,9.9-1.5,1.1-3,2.3-4.4,3.8-10.1,10.1-12.3,24.3-4.9,31.7,7.4,7.4,21.6,5.2,31.7-4.9,7.8-7.8,10.9-18.1,8.5-25.8h0c.8-.6,1.5-1.2,2.3-1.8,1.9,4.2,3,9.1,3,14.2,0,17.1-12.1,31-27.1,31h0ZM594.8,62.6c15,0,27.1,13.9,27.1,31s-5.5,21.6-13.8,26.9c-.7-3.7-2.2-7-4.4-9.9,1.5-1.1,3-2.3,4.4-3.8,10.1-10.1,12.3-24.3,4.9-31.7-7.4-7.4-21.6-5.2-31.7,4.9-7.8,7.8-10.9,18.1-8.5,25.8h0c-.8.6-1.5,1.2-2.3,1.8-1.9-4.2-3-9.1-3-14.2,0-17.1,12.1-31,27.1-31h0ZM531.7,120.5c-15,0-27.1-13.9-27.1-31s5.5-21.6,13.8-27c.7,3.7,2.2,7,4.4,9.9-1.5,1.1-3,2.3-4.4,3.8-10.1,10.1-12.3,24.3-4.9,31.7,7.4,7.4,21.6,5.2,31.7-4.9,7.8-7.8,10.9-18.1,8.5-25.8h0c.8-.6,1.5-1.2,2.3-1.8,1.9,4.2,3,9.1,3,14.2,0,17.1-12.1,31-27.1,31h0ZM468.6,62.6c15,0,27.1,13.9,27.1,31s-5.5,21.6-13.8,26.9c-.7-3.7-2.2-7-4.4-9.9,1.5-1.1,3-2.3,4.4-3.8,10.1-10.1,12.3-24.3,4.9-31.7-7.4-7.4-21.6-5.2-31.7,4.9-7.8,7.8-10.9,18.1-8.5,25.8h0c-.8.6-1.5,1.2-2.3,1.8-1.9-4.2-3-9.1-3-14.2,0-17.1,12.1-31,27.1-31h0ZM405.6,120.5c-15,0-27.1-13.9-27.1-31s5.5-21.6,13.8-27c.7,3.7,2.2,7,4.4,9.9-1.5,1.1-3,2.3-4.4,3.8-10.1,10.1-12.3,24.3-4.9,31.7,7.4,7.4,21.6,5.2,31.7-4.9,7.8-7.8,10.9-18.1,8.5-25.8h0c.8-.6,1.5-1.2,2.3-1.8,1.9,4.2,3,9.1,3,14.2,0,17.1-12.1,31-27.1,31h0ZM342.5,62.6c15,0,27.1,13.9,27.1,31s-5.5,21.6-13.8,26.9c-.7-3.7-2.2-7-4.4-9.9,1.5-1.1,3-2.3,4.4-3.8,10.1-10.1,12.3-24.3,4.9-31.7-7.4-7.4-21.6-5.2-31.7,4.9-7.8,7.8-10.9,18.1-8.5,25.8h0c-.8.6-1.5,1.2-2.3,1.8-1.9-4.2-3-9.1-3-14.2,0-17.1,12.1-31,27.1-31h0ZM279.4,120.5c-15,0-27.1-13.9-27.1-31s5.5-21.6,13.8-27c.7,3.7,2.2,7,4.4,9.9-1.5,1.1-3,2.3-4.4,3.8-10.1,10.1-12.3,24.3-4.9,31.7,7.4,7.4,21.6,5.2,31.7-4.9,7.8-7.8,10.9-18.1,8.5-25.8h0c.8-.6,1.5-1.2,2.3-1.8,1.9,4.2,3,9.1,3,14.2,0,17.1-12.1,31-27.1,31h0ZM216.4,62.6c15,0,27.1,13.9,27.1,31s-5.5,21.6-13.8,26.9c-.7-3.7-2.2-7-4.4-9.9,1.6-1.1,3-2.3,4.4-3.8,10.1-10.1,12.3-24.3,4.9-31.7-7.4-7.4-21.6-5.2-31.7,4.9s-10.9,18.1-8.5,25.8h0c-.8.6-1.6,1.2-2.3,1.8-1.9-4.2-3-9.1-3-14.2,0-17.1,12.1-31,27.1-31h0ZM153.3,120.5c-15,0-27.1-13.9-27.1-31s5.5-21.6,13.8-27c.7,3.7,2.2,7,4.4,9.9-1.6,1.1-3,2.3-4.4,3.8-10.1,10.1-12.3,24.3-4.9,31.7,7.4,7.4,21.6,5.2,31.7-4.9s10.9-18.1,8.5-25.8h0c.8-.6,1.6-1.2,2.3-1.8,1.9,4.2,3,9.1,3,14.2,0,17.1-12.1,31-27.1,31h0ZM90.2,62.6c15,0,27.1,13.9,27.1,31s-5.5,21.6-13.8,26.9c-.7-3.7-2.2-7-4.4-9.9,1.6-1.1,3-2.3,4.4-3.8,10.1-10.1,12.3-24.3,4.9-31.7-7.4-7.4-21.6-5.2-31.7,4.9s-10.9,18.1-8.5,25.8h0c-.8.6-1.6,1.2-2.3,1.8-1.9-4.2-3-9.1-3-14.2,0-17.1,12.1-31,27.1-31h0ZM27.1,120.5c-15,0-27.1-13.9-27.1-31s5.5-21.6,13.8-27c.7,3.7,2.2,7,4.4,9.9-1.5,1.1-3,2.3-4.4,3.8-10.1,10.1-12.3,24.3-4.9,31.7,7.4,7.4,21.6,5.2,31.7-4.9,7.8-7.8,10.9-18.1,8.5-25.8h0c.8-.6,1.5-1.2,2.3-1.8,1.9,4.2,3,9.1,3,14.2,0,17.1-12.1,31-27.1,31h0ZM27.1,125.2c-15,0-27.1,13.9-27.1,31s5.5,21.6,13.8,26.9c.7-3.7,2.2-7,4.4-9.9-1.5-1.1-3-2.4-4.4-3.8-10.1-10.1-12.3-24.3-4.9-31.7,7.4-7.4,21.6-5.2,31.7,4.9,7.8,7.8,10.9,18.1,8.5,25.8h0c.8.6,1.5,1.2,2.3,1.8,1.9-4.2,3-9.1,3-14.2,0-17.1-12.1-31-27.1-31h0ZM90.2,183.1c15,0,27.1-13.9,27.1-31s-5.5-21.6-13.8-26.9c-.7,3.7-2.2,7-4.4,9.9,1.6,1.1,3,2.4,4.4,3.8,10.1,10.1,12.3,24.3,4.9,31.7-7.4,7.4-21.6,5.2-31.7-4.9s-10.9-18.1-8.5-25.8h0c-.8-.6-1.6-1.2-2.3-1.8-1.9,4.2-3,9.1-3,14.2,0,17.1,12.1,31,27.1,31h0ZM153.3,125.2c-15,0-27.1,13.9-27.1,31s5.5,21.6,13.8,26.9c.7-3.7,2.2-7,4.4-9.9-1.6-1.1-3-2.4-4.4-3.8-10.1-10.1-12.3-24.3-4.9-31.7s21.6-5.2,31.7,4.9,10.9,18.1,8.5,25.8h0c.8.6,1.6,1.2,2.3,1.8,1.9-4.2,3-9.1,3-14.2,0-17.1-12.1-31-27.1-31h0ZM216.4,183.1c15,0,27.1-13.9,27.1-31s-5.5-21.6-13.8-26.9c-.7,3.7-2.2,7-4.4,9.9,1.6,1.1,3,2.4,4.4,3.8,10.1,10.1,12.3,24.3,4.9,31.7s-21.6,5.2-31.7-4.9-10.9-18.1-8.5-25.8h0c-.8-.6-1.6-1.2-2.3-1.8-1.9,4.2-3,9.1-3,14.2,0,17.1,12.1,31,27.1,31h0ZM279.4,125.2c-15,0-27.1,13.9-27.1,31s5.5,21.6,13.8,26.9c.7-3.7,2.2-7,4.4-9.9-1.5-1.1-3-2.4-4.4-3.8-10.1-10.1-12.3-24.3-4.9-31.7s21.6-5.2,31.7,4.9c7.8,7.8,10.9,18.1,8.5,25.8h0c.8.6,1.5,1.2,2.3,1.8,1.9-4.2,3-9.1,3-14.2,0-17.1-12.1-31-27.1-31h0ZM342.5,183.1c15,0,27.1-13.9,27.1-31s-5.5-21.6-13.8-26.9c-.7,3.7-2.2,7-4.4,9.9,1.5,1.1,3,2.4,4.4,3.8,10.1,10.1,12.3,24.3,4.9,31.7s-21.6,5.2-31.7-4.9c-7.8-7.8-10.9-18.1-8.5-25.8h0c-.8-.6-1.5-1.2-2.3-1.8-1.9,4.2-3,9.1-3,14.2,0,17.1,12.1,31,27.1,31h0ZM405.6,125.2c-15,0-27.1,13.9-27.1,31s5.5,21.6,13.8,26.9c.7-3.7,2.2-7,4.4-9.9-1.5-1.1-3-2.4-4.4-3.8-10.1-10.1-12.3-24.3-4.9-31.7s21.6-5.2,31.7,4.9c7.8,7.8,10.9,18.1,8.5,25.8h0c.8.6,1.5,1.2,2.3,1.8,1.9-4.2,3-9.1,3-14.2,0-17.1-12.1-31-27.1-31h0ZM468.6,183.1c15,0,27.1-13.9,27.1-31s-5.5-21.6-13.8-26.9c-.7,3.7-2.2,7-4.4,9.9,1.5,1.1,3,2.4,4.4,3.8,10.1,10.1,12.3,24.3,4.9,31.7s-21.6,5.2-31.7-4.9c-7.8-7.8-10.9-18.1-8.5-25.8h0c-.8-.6-1.5-1.2-2.3-1.8-1.9,4.2-3,9.1-3,14.2,0,17.1,12.1,31,27.1,31h0ZM531.7,125.2c-15,0-27.1,13.9-27.1,31s5.5,21.6,13.8,26.9c.7-3.7,2.2-7,4.4-9.9-1.5-1.1-3-2.4-4.4-3.8-10.1-10.1-12.3-24.3-4.9-31.7,7.4-7.4,21.6-5.2,31.7,4.9,7.8,7.8,10.9,18.1,8.5,25.8h0c.8.6,1.5,1.2,2.3,1.8,1.9-4.2,3-9.1,3-14.2,0-17.1-12.1-31-27.1-31h0ZM594.8,183.1c15,0,27.1-13.9,27.1-31s-5.5-21.6-13.8-26.9c-.7,3.7-2.2,7-4.4,9.9,1.5,1.1,3,2.4,4.4,3.8,10.1,10.1,12.3,24.3,4.9,31.7-7.4,7.4-21.6,5.2-31.7-4.9-7.8-7.8-10.9-18.1-8.5-25.8h0c-.8-.6-1.5-1.2-2.3-1.8-1.9,4.2-3,9.1-3,14.2,0,17.1,12.1,31,27.1,31h0ZM657.9,125.2c-15,0-27.1,13.9-27.1,31s5.5,21.6,13.8,26.9c.7-3.7,2.2-7,4.4-9.9-1.5-1.1-3-2.4-4.4-3.8-10.1-10.1-12.3-24.3-4.9-31.7,7.4-7.4,21.6-5.2,31.7,4.9,7.8,7.8,10.9,18.1,8.5,25.8h0c.8.6,1.5,1.2,2.3,1.8,1.9-4.2,3-9.1,3-14.2,0-17.1-12.1-31-27.1-31h0ZM721,183.1c15,0,27.1-13.9,27.1-31s-5.5-21.6-13.8-26.9c-.7,3.7-2.2,7-4.4,9.9,1.5,1.1,3,2.4,4.4,3.8,10.1,10.1,12.3,24.3,4.9,31.7-7.4,7.4-21.6,5.2-31.7-4.9-7.8-7.8-10.9-18.1-8.5-25.8h0c-.8-.6-1.5-1.2-2.3-1.8-1.9,4.2-3,9.1-3,14.2,0,17.1,12.1,31,27.1,31h0ZM784,125.2c-15,0-27.1,13.9-27.1,31s5.5,21.6,13.8,26.9c.7-3.7,2.2-7,4.4-9.9-1.5-1.1-3-2.4-4.4-3.8-10.1-10.1-12.3-24.3-4.9-31.7,7.4-7.4,21.6-5.2,31.7,4.9,7.8,7.8,10.9,18.1,8.5,25.8h0c.8.6,1.5,1.2,2.3,1.8,1.9-4.2,3-9.1,3-14.2,0-17.1-12.1-31-27.1-31h0ZM847.1,183.1c15,0,27.1-13.9,27.1-31s-5.5-21.6-13.8-26.9c-.7,3.7-2.2,7-4.4,9.9,1.5,1.1,3,2.4,4.4,3.8,10.1,10.1,12.3,24.3,4.9,31.7-7.4,7.4-21.6,5.2-31.7-4.9-7.8-7.8-10.9-18.1-8.5-25.8h0c-.8-.6-1.5-1.2-2.3-1.8-1.9,4.2-3,9.1-3,14.2,0,17.1,12.1,31,27.1,31h0ZM910.2,125.2c-15,0-27.1,13.9-27.1,31s5.5,21.6,13.8,26.9c.7-3.7,2.2-7,4.4-9.9-1.5-1.1-3-2.4-4.4-3.8-10.1-10.1-12.3-24.3-4.9-31.7,7.4-7.4,21.6-5.2,31.7,4.9,7.8,7.8,10.9,18.1,8.5,25.8h0c.8.6,1.5,1.2,2.3,1.8,1.9-4.2,3-9.1,3-14.2,0-17.1-12.1-31-27.1-31h0ZM973.2,183.1c15,0,27.1-13.9,27.1-31s-5.5-21.6-13.8-26.9c-.7,3.7-2.2,7-4.4,9.9,1.5,1.1,3,2.4,4.4,3.8,10.1,10.1,12.3,24.3,4.9,31.7-7.4,7.4-21.6,5.2-31.7-4.9-7.8-7.8-10.9-18.1-8.5-25.8h0c-.8-.6-1.5-1.2-2.3-1.8-1.9,4.2-3,9.1-3,14.2,0,17.1,12.1,31,27.1,31h0ZM973.2,187.7c15,0,27.1,13.9,27.1,31s-5.5,21.6-13.8,26.9c-.7-3.7-2.2-7-4.4-9.9,1.5-1.1,3-2.4,4.4-3.8,10.1-10.1,12.3-24.3,4.9-31.7-7.4-7.4-21.6-5.2-31.7,4.9-7.8,7.8-10.9,18.1-8.5,25.8h0c-.8.6-1.5,1.2-2.3,1.8-1.9-4.2-3-9.1-3-14.2,0-17.1,12.1-31,27.1-31h0ZM910.2,245.7c-15,0-27.1-13.9-27.1-31s5.5-21.6,13.8-26.9c.7,3.7,2.2,7,4.4,9.9-1.5,1.1-3,2.4-4.4,3.8-10.1,10.1-12.3,24.3-4.9,31.7,7.4,7.4,21.6,5.2,31.7-4.9,7.8-7.8,10.9-18.1,8.5-25.8h0c.8-.6,1.5-1.2,2.3-1.8,1.9,4.2,3,9.1,3,14.2,0,17.1-12.1,31-27.1,31h0ZM847.1,187.7c15,0,27.1,13.9,27.1,31s-5.5,21.6-13.8,26.9c-.7-3.7-2.2-7-4.4-9.9,1.5-1.1,3-2.4,4.4-3.8,10.1-10.1,12.3-24.3,4.9-31.7-7.4-7.4-21.6-5.2-31.7,4.9-7.8,7.8-10.9,18.1-8.5,25.8h0c-.8.6-1.5,1.2-2.3,1.8-1.9-4.2-3-9.1-3-14.2,0-17.1,12.1-31,27.1-31h0ZM784,245.7c-15,0-27.1-13.9-27.1-31s5.5-21.6,13.8-26.9c.7,3.7,2.2,7,4.4,9.9-1.5,1.1-3,2.4-4.4,3.8-10.1,10.1-12.3,24.3-4.9,31.7,7.4,7.4,21.6,5.2,31.7-4.9,7.8-7.8,10.9-18.1,8.5-25.8h0c.8-.6,1.5-1.2,2.3-1.8,1.9,4.2,3,9.1,3,14.2,0,17.1-12.1,31-27.1,31h0ZM721,187.7c15,0,27.1,13.9,27.1,31s-5.5,21.6-13.8,26.9c-.7-3.7-2.2-7-4.4-9.9,1.5-1.1,3-2.4,4.4-3.8,10.1-10.1,12.3-24.3,4.9-31.7-7.4-7.4-21.6-5.2-31.7,4.9-7.8,7.8-10.9,18.1-8.5,25.8h0c-.8.6-1.5,1.2-2.3,1.8-1.9-4.2-3-9.1-3-14.2,0-17.1,12.1-31,27.1-31h0ZM657.9,245.7c-15,0-27.1-13.9-27.1-31s5.5-21.6,13.8-26.9c.7,3.7,2.2,7,4.4,9.9-1.5,1.1-3,2.4-4.4,3.8-10.1,10.1-12.3,24.3-4.9,31.7,7.4,7.4,21.6,5.2,31.7-4.9,7.8-7.8,10.9-18.1,8.5-25.8h0c.8-.6,1.5-1.2,2.3-1.8,1.9,4.2,3,9.1,3,14.2,0,17.1-12.1,31-27.1,31h0ZM594.8,187.7c15,0,27.1,13.9,27.1,31s-5.5,21.6-13.8,26.9c-.7-3.7-2.2-7-4.4-9.9,1.5-1.1,3-2.4,4.4-3.8,10.1-10.1,12.3-24.3,4.9-31.7-7.4-7.4-21.6-5.2-31.7,4.9-7.8,7.8-10.9,18.1-8.5,25.8h0c-.8.6-1.5,1.2-2.3,1.8-1.9-4.2-3-9.1-3-14.2,0-17.1,12.1-31,27.1-31h0ZM531.7,245.7c-15,0-27.1-13.9-27.1-31s5.5-21.6,13.8-26.9c.7,3.7,2.2,7,4.4,9.9-1.5,1.1-3,2.4-4.4,3.8-10.1,10.1-12.3,24.3-4.9,31.7,7.4,7.4,21.6,5.2,31.7-4.9,7.8-7.8,10.9-18.1,8.5-25.8h0c.8-.6,1.5-1.2,2.3-1.8,1.9,4.2,3,9.1,3,14.2,0,17.1-12.1,31-27.1,31h0ZM468.6,187.7c15,0,27.1,13.9,27.1,31s-5.5,21.6-13.8,26.9c-.7-3.7-2.2-7-4.4-9.9,1.5-1.1,3-2.4,4.4-3.8,10.1-10.1,12.3-24.3,4.9-31.7-7.4-7.4-21.6-5.2-31.7,4.9-7.8,7.8-10.9,18.1-8.5,25.8h0c-.8.6-1.5,1.2-2.3,1.8-1.9-4.2-3-9.1-3-14.2,0-17.1,12.1-31,27.1-31h0ZM405.6,245.7c-15,0-27.1-13.9-27.1-31s5.5-21.6,13.8-26.9c.7,3.7,2.2,7,4.4,9.9-1.5,1.1-3,2.4-4.4,3.8-10.1,10.1-12.3,24.3-4.9,31.7,7.4,7.4,21.6,5.2,31.7-4.9,7.8-7.8,10.9-18.1,8.5-25.8h0c.8-.6,1.5-1.2,2.3-1.8,1.9,4.2,3,9.1,3,14.2,0,17.1-12.1,31-27.1,31h0ZM342.5,187.7c15,0,27.1,13.9,27.1,31s-5.5,21.6-13.8,26.9c-.7-3.7-2.2-7-4.4-9.9,1.5-1.1,3-2.4,4.4-3.8,10.1-10.1,12.3-24.3,4.9-31.7-7.4-7.4-21.6-5.2-31.7,4.9-7.8,7.8-10.9,18.1-8.5,25.8h0c-.8.6-1.5,1.2-2.3,1.8-1.9-4.2-3-9.1-3-14.2,0-17.1,12.1-31,27.1-31h0ZM279.4,245.7c-15,0-27.1-13.9-27.1-31s5.5-21.6,13.8-26.9c.7,3.7,2.2,7,4.4,9.9-1.5,1.1-3,2.4-4.4,3.8-10.1,10.1-12.3,24.3-4.9,31.7,7.4,7.4,21.6,5.2,31.7-4.9,7.8-7.8,10.9-18.1,8.5-25.8h0c.8-.6,1.5-1.2,2.3-1.8,1.9,4.2,3,9.1,3,14.2,0,17.1-12.1,31-27.1,31h0ZM216.4,187.7c15,0,27.1,13.9,27.1,31s-5.5,21.6-13.8,26.9c-.7-3.7-2.2-7-4.4-9.9,1.6-1.1,3-2.4,4.4-3.8,10.1-10.1,12.3-24.3,4.9-31.7-7.4-7.4-21.6-5.2-31.7,4.9s-10.9,18.1-8.5,25.8h0c-.8.6-1.6,1.2-2.3,1.8-1.9-4.2-3-9.1-3-14.2,0-17.1,12.1-31,27.1-31h0ZM153.3,245.7c-15,0-27.1-13.9-27.1-31s5.5-21.6,13.8-26.9c.7,3.7,2.2,7,4.4,9.9-1.6,1.1-3,2.4-4.4,3.8-10.1,10.1-12.3,24.3-4.9,31.7,7.4,7.4,21.6,5.2,31.7-4.9s10.9-18.1,8.5-25.8h0c.8-.6,1.6-1.2,2.3-1.8,1.9,4.2,3,9.1,3,14.2,0,17.1-12.1,31-27.1,31h0ZM90.2,187.7c15,0,27.1,13.9,27.1,31s-5.5,21.6-13.8,26.9c-.7-3.7-2.2-7-4.4-9.9,1.6-1.1,3-2.4,4.4-3.8,10.1-10.1,12.3-24.3,4.9-31.7-7.4-7.4-21.6-5.2-31.7,4.9s-10.9,18.1-8.5,25.8h0c-.8.6-1.6,1.2-2.3,1.8-1.9-4.2-3-9.1-3-14.2,0-17.1,12.1-31,27.1-31h0ZM27.1,245.7c-15,0-27.1-13.9-27.1-31s5.5-21.6,13.8-26.9c.7,3.7,2.2,7,4.4,9.9-1.5,1.1-3,2.4-4.4,3.8-10.1,10.1-12.3,24.3-4.9,31.7,7.4,7.4,21.6,5.2,31.7-4.9,7.8-7.8,10.9-18.1,8.5-25.8h0c.8-.6,1.5-1.2,2.3-1.8,1.9,4.2,3,9.1,3,14.2,0,17.1-12.1,31-27.1,31h0Z"/>
</svg>